<?xml version="1.0" encoding="UTF-8" standalone="no"?>
<!-- Created with Inkscape (http://www.inkscape.org/) -->

<svg
   xmlns:dc="http://purl.org/dc/elements/1.1/"
   xmlns:cc="http://creativecommons.org/ns#"
   xmlns:rdf="http://www.w3.org/1999/02/22-rdf-syntax-ns#"
   xmlns:svg="http://www.w3.org/2000/svg"
   xmlns="http://www.w3.org/2000/svg"
   xmlns:sodipodi="http://sodipodi.sourceforge.net/DTD/sodipodi-0.dtd"
   xmlns:inkscape="http://www.inkscape.org/namespaces/inkscape"
   width="210mm"
   height="297mm"
   id="svg2"
   version="1.1"
   inkscape:version="0.48.4 r9939"
   sodipodi:docname="Nouveau document 1">
  <defs
     id="defs4" />
  <sodipodi:namedview
     id="base"
     pagecolor="#ffffff"
     bordercolor="#666666"
     borderopacity="1.0"
     inkscape:pageopacity="0.0"
     inkscape:pageshadow="2"
     inkscape:zoom="0.35"
     inkscape:cx="375"
     inkscape:cy="520"
     inkscape:document-units="px"
     inkscape:current-layer="layer1"
     showgrid="false"
     inkscape:window-width="1280"
     inkscape:window-height="734"
     inkscape:window-x="0"
     inkscape:window-y="27"
     inkscape:window-maximized="1" />
  <metadata
     id="metadata7">
    <rdf:RDF>
      <cc:Work
         rdf:about="">
        <dc:format>image/svg+xml</dc:format>
        <dc:type
           rdf:resource="http://purl.org/dc/dcmitype/StillImage" />
        <dc:title></dc:title>
      </cc:Work>
    </rdf:RDF>
  </metadata>
  <g
     inkscape:label="Calque 1"
     inkscape:groupmode="layer"
     id="layer1">
    <path
       sodipodi:type="spiral"
       style="fill:none;stroke:#000000;stroke-width:1px;stroke-linecap:butt;stroke-linejoin:miter;stroke-opacity:1"
       id="path2985"
       sodipodi:cx="440"
       sodipodi:cy="775.2193"
       sodipodi:expansion="1"
       sodipodi:revolution="3"
       sodipodi:radius="74.505173"
       sodipodi:argument="-18.282827"
       sodipodi:t0="0"
       d="m 440,775.2193 c 3.15156,2.00553 -1.14855,5.2377 -3.33333,5.2381 -5.92061,0.001 -8.43364,-7.02434 -7.14287,-11.90476 2.30889,-8.72992 12.61924,-11.98372 20.47619,-9.04763 11.5304,4.30882 15.61729,18.28217 10.9524,29.04761 -6.21757,14.34864 -23.96824,19.28513 -37.61904,12.85717 -17.17814,-8.08894 -22.97044,-29.66508 -14.76194,-46.19047 9.9416,-20.01447 35.36793,-26.66581 54.7619,-16.6667 22.85512,11.7836 30.36749,41.07452 18.57147,63.33332 -13.61897,25.69866 -46.78362,34.07338 -71.90475,20.47624 -28.54423,-15.44994 -37.78221,-52.49447 -22.38101,-80.47618 17.27783,-31.39125 58.20661,-41.49319 89.04761,-24.28577 34.23935,19.10349 45.20577,63.91971 26.19054,97.61903"
       transform="translate(197.14286,-665.71429)" />
  </g>
</svg>
